<?xml version="1.0" encoding="utf-8"?>
<!-- Generator: Adobe Illustrator 24.1.1, SVG Export Plug-In . SVG Version: 6.00 Build 0)  -->
<svg width="29" height="28" color='black' version="1.1" id="Layer_1" xmlns="http://www.w3.org/2000/svg" xmlns:xlink="http://www.w3.org/1999/xlink" x="0px" y="0px"
	 viewBox="0 0 512 512" style="enable-background:new 0 0 512 512;" xml:space="preserve">
<style type="text/css">
	.st0{fill:#000;}
</style>
<g id="XMLID_10_">
	<path id="XMLID_19_" class="st0" d="M460.8,0H153.6c-27.9,0-51.2,23.3-51.2,51.2v307.2c0,27.9,23.3,51.2,51.2,51.2h307.2
		c27.9,0,51.2-23.3,51.2-51.2V51.2C512,23.3,488.7,0,460.8,0z M243,191.8c0,21.4-16.8,38.2-38.2,38.2h-26.1v51.2h-38.2V128.5h64.2
		c21.4,0,38.2,16.8,38.2,38.2C243,166.6,243,191.8,243,191.8z M371.4,243c0,21.4-16.8,38.2-38.2,38.2H269V128.5h64.2
		c21.4,0,38.2,16.8,38.2,38.2V243z M473.8,166.6h-38.2v25.1h38.2v38.2h-38.2v51.2h-38.2V128.5h77.3v38.2H473.8z M179.7,191.8h26.1
		v-25.1h-26.1V191.8z M51.2,102.4H0v358.4C0,488.7,23.3,512,51.2,512h358.4v-51.2H51.2V102.4z M307.2,243h26.1v-77.3h-26.1V243z"/>
</g>
</svg>
